PathFileType	4	(X/Y/Z)	/Users/itak/Documents/Research/Walk-IL/dataset/trc/00523_00183.trc
DataRate	CameraRate	NumFrames	NumMarkers	Units	OrigDataRate	OrigDataStartFrame	OrigNumFrames
100.000000	100.000000	4	56	mm	100.000000	64	512
Frame#	Time	RPSI			LPSI			L3			STRN			T10			C7			CLAV			RBAK			LBAK			LSHO			LUPA			LAEL			LAOL			LWTS			LWPS			LFRA			LHPS			LHTS			RSHO			RUPA			RAEL			RAOL			RWTS			RWPS			RFRA			RIFD			RHPS			RBHD			LFHD			RFHD			LBHD			LHIP			RHIP			RASI			LASI			LKNE			LTHI			LANK			LTIP			LTOE			LMT1			LMT5			LHEE			RKNE			RTHI			RANK			RTIP			RTOE			RMT1			RMT5			RHEE			RHTS			LIFD			*53			*54			*55			
		X1	Y1	Z1	X2	Y2	Z2	X3	Y3	Z3	X4	Y4	Z4	X5	Y5	Z5	X6	Y6	Z6	X7	Y7	Z7	X8	Y8	Z8	X9	Y9	Z9	X10	Y10	Z10	X11	Y11	Z11	X12	Y12	Z12	X13	Y13	Z13	X14	Y14	Z14	X15	Y15	Z15	X16	Y16	Z16	X17	Y17	Z17	X18	Y18	Z18	X19	Y19	Z19	X20	Y20	Z20	X21	Y21	Z21	X22	Y22	Z22	X23	Y23	Z23	X24	Y24	Z24	X25	Y25	Z25	X26	Y26	Z26	X27	Y27	Z27	X28	Y28	Z28	X29	Y29	Z29	X30	Y30	Z30	X31	Y31	Z31	X32	Y32	Z32	X33	Y33	Z33	X34	Y34	Z34	X35	Y35	Z35	X36	Y36	Z36	X37	Y37	Z37	X38	Y38	Z38	X39	Y39	Z39	X40	Y40	Z40	X41	Y41	Z41	X42	Y42	Z42	X43	Y43	Z43	X44	Y44	Z44	X45	Y45	Z45	X46	Y46	Z46	X47	Y47	Z47	X48	Y48	Z48	X49	Y49	Z49	X50	Y50	Z50	X51	Y51	Z51	X52	Y52	Z52	X53	Y53	Z53	X54	Y54	Z54	X55	Y55	Z55	X56	Y56	Z56	

65	0.64	-1373.23681640625	970.9849243164062	-297.413818359375	-1340.55810546875	971.566650390625	-416.7469177246094	-1372.717651367188	1028.869873046875	-363.4168090820312	-1153.609252929688	1200.091064453125	-323.8959655761719	-1387.94091796875	1136.1083984375	-363.136474609375	-1340.592651367188	1365.968627929688	-354.0251770019531	-1188.9208984375	1294.812622070312	-330.7732543945312	-1401.502563476562	1244.304077148438	-276.6265258789062	-1351.713500976562	1310.300048828125	-442.2537231445312	-1251.26953125	1361.86279296875	-502.0509338378906	-1256.386474609375	1234.7822265625	-561.3917846679688	-1242.30419921875	1024.9921875	-585.9194946289062	-1317.276611328125	1016.031494140625	-519.1593627929688	-1150.963745117188	839.203857421875	-543.834228515625	-1230.376220703125	800.3212280273438	-578.60546875	-1224.20556640625	939.1088256835938	-586.1449584960938	-1204.269287109375	748.2079467773438	-574.5584716796875	-1141.835327148438	761.0487670898438	-560.2127075195312	-1313.035888671875	1363.561157226562	-199.489501953125	-1338.407592773438	1296.222290039062	-145.4221038818359	-1332.395385742188	1027.967651367188	-101.6971740722656	-1376.035034179688	1008.620300292969	-147.5807495117188	-1218.993041992188	830.3482666015625	-116.2179336547852	-1298.794799804688	802.4806518554688	-81.45451354980469	-1328.612548828125	973.6240844726562	-94.57175445556641	-1212.065795898438	670.947021484375	-107.1220397949219	-1274.8095703125	733.8079223632812	-76.62741088867188	-1332.674194335938	1520.604858398438	-279.650146484375	-1167.200073242188	1592.7353515625	-367.3030395507812	-1216.756225585938	1588.465209960938	-250.0594024658203	-1283.61474609375	1520.616943359375	-432.4321899414062	-1206.681396484375	892.7864990234375	-518.922119140625	-1305.959838867188	868.9339599609375	-151.8902893066406	-1191.162719726562	908.9671630859375	-191.8432006835938	-1133.593505859375	922.6963500976562	-427.685302734375	-1243.825927734375	473.1733093261719	-483.8022766113281	-1210.53466796875	628.734130859375	-500.4526672363281	-1353.609252929688	51.77640914916992	-480.4815673828125	-1285.62548828125	331.2393493652344	-493.5107727050781	-1161.25634765625	39.68857192993164	-403.5763244628906	-1240.1708984375	45.08231353759766	-377.2613220214844	-1243.306274414062	44.35566329956055	-479.243896484375	-1406.058471679688	49.13185119628906	-421.9637145996094	-1322.221435546875	481.2088012695312	-174.3672790527344	-1289.642578125	739.6703491210938	-140.1584930419922	-1368.821533203125	49.8052978515625	-219.1788024902344	-1321.537109375	340.2226867675781	-190.8127136230469	-1163.373168945312	44.8651123046875	-229.299560546875	-1223.327026367188	50.65393829345703	-276.5785827636719	-1259.108154296875	45.34477233886719	-186.4427642822266	-1412.40087890625	40.84901428222656	-274.6168823242188	-1205.285766601562	738.82470703125	-88.80069732666016	-1143.436889648438	680.754150390625	-532.3171997070312	nan	nan	nan	nan	nan	nan	nan	nan	nan	
66	0.65	-1372.976196289062	971.0988159179688	-297.5476989746094	-1340.26953125	971.5835571289062	-417.0658264160156	-1372.3779296875	1028.9560546875	-363.4983215332031	-1152.73583984375	1200.194946289062	-324.4068908691406	-1387.361083984375	1136.219116210938	-363.4682006835938	-1340.060302734375	1365.9619140625	-354.2361755371094	-1188.360473632812	1294.630004882812	-331.0406188964844	-1401.0400390625	1244.377563476562	-276.6944274902344	-1351.323608398438	1310.317260742188	-442.2302551269531	-1250.689208984375	1361.840942382812	-502.2530822753906	-1255.820190429688	1234.658569335938	-561.8060913085938	-1242.32080078125	1024.959228515625	-586.2675170898438	-1316.83740234375	1016.009643554688	-519.7101440429688	-1150.699951171875	839.2882690429688	-544.0095825195312	-1230.38623046875	800.3902587890625	-578.9151611328125	-1223.6171875	939.132080078125	-586.4663696289062	-1204.036254882812	748.1709594726562	-574.6405639648438	-1141.555786132812	760.9674072265625	-560.669921875	-1312.425048828125	1363.611572265625	-199.8682250976562	-1337.693115234375	1296.248779296875	-145.5759887695312	-1331.778930664062	1027.979858398438	-102.0834732055664	-1375.544555664062	1008.710510253906	-147.8000030517578	-1218.651123046875	830.342529296875	-116.397216796875	-1298.413208007812	802.498779296875	-81.61846160888672	-1327.926879882812	973.7881469726562	-94.83927154541016	-1211.644165039062	670.8766479492188	-107.4115829467773	-1274.48193359375	733.8358154296875	-76.74491119384766	-1331.78125	1520.586669921875	-279.88671875	-1165.961303710938	1592.696899414062	-367.5811462402344	-1215.814331054688	1588.321655273438	-250.2660827636719	-1283.479614257812	1520.563598632812	-432.3393859863281	-1206.316284179688	892.8275756835938	-519.1715698242188	-1306.018798828125	869.1892700195312	-152.4682769775391	-1190.888305664062	908.9271850585938	-191.9631958007812	-1132.919799804688	922.6825561523438	-428.0785217285156	-1243.332641601562	473.1341552734375	-483.9125061035156	-1210.242797851562	628.7255249023438	-500.5820007324219	-1353.857666015625	51.64516067504883	-480.42919921875	-1285.144653320312	331.0879516601562	-493.2240905761719	-1161.266723632812	39.69330978393555	-403.5613098144531	-1240.170166015625	45.0843620300293	-377.2599487304688	-1243.322021484375	44.37913513183594	-479.2571716308594	-1406.015502929688	49.12874603271484	-422.0175170898438	-1322.1005859375	481.2377319335938	-174.4224395751953	-1289.357177734375	739.714111328125	-140.4977264404297	-1368.864135742188	49.78237915039062	-219.0927734375	-1321.45263671875	340.2548828125	-190.8565521240234	-1163.396728515625	44.88338470458984	-229.2413787841797	-1223.3671875	50.69453430175781	-276.5245361328125	-1259.097778320312	45.30577087402344	-186.3701934814453	-1412.452270507812	40.81357955932617	-274.6143493652344	-1204.7861328125	738.8698120117188	-89.12744140625	-1143.224975585938	680.752197265625	-532.5109252929688	nan	nan	nan	nan	nan	nan	nan	nan	nan	
67	0.66	-1372.545654296875	971.02490234375	-297.6371154785156	-1339.84033203125	971.6454467773438	-417.4273071289062	-1372.005249023438	1029.0576171875	-363.6445007324219	-1152.19970703125	1200.13232421875	-324.7833251953125	-1386.84130859375	1136.31201171875	-363.7237243652344	-1339.651000976562	1365.956787109375	-354.1999816894531	-1187.800659179688	1294.485473632812	-331.3040771484375	-1400.52587890625	1244.489135742188	-276.7388000488281	-1350.73291015625	1310.449340820312	-442.61376953125	-1249.93798828125	1361.831665039062	-502.4264831542969	-1255.381103515625	1234.608276367188	-562.1044921875	-1242.115844726562	1024.994262695312	-586.6159057617188	-1316.568481445312	1015.988952636719	-519.876953125	-1150.58203125	839.2852172851562	-544.1734008789062	-1230.14892578125	800.4376220703125	-579.1950073242188	-1223.266723632812	939.1021118164062	-586.9134521484375	-1203.831665039062	748.033447265625	-574.8991088867188	-1141.185180664062	760.9968872070312	-561.141357421875	-1311.59814453125	1363.633178710938	-200.0787353515625	-1336.991821289062	1296.291259765625	-145.8341827392578	-1331.336181640625	1028.033813476562	-102.0452728271484	-1374.87744140625	1008.868469238281	-148.2196197509766	-1218.127685546875	830.3577880859375	-116.8003997802734	-1298.01123046875	802.5062255859375	-81.83710479736328	-1327.666748046875	973.8849487304688	-94.59239196777344	-1211.28662109375	670.9227294921875	-107.6821746826172	-1274.026245117188	734.001708984375	-77.10892486572266	-1330.82373046875	1520.6923828125	-279.9444580078125	-1164.928466796875	1592.526000976562	-367.7721252441406	-1215.056762695312	1588.426879882812	-250.1202545166016	-1282.975341796875	1520.521118164062	-432.3745727539062	-1206.069702148438	892.7632446289062	-519.3743286132812	-1306.457153320312	869.6473388671875	-152.9750061035156	-1190.599609375	908.8521118164062	-192.1338500976562	-1132.380493164062	922.6542358398438	-428.2915954589844	-1242.961791992188	473.4017639160156	-484.1903076171875	-1209.921264648438	628.7353515625	-500.7969055175781	-1353.900634765625	51.67319869995117	-480.4265747070312	-1284.931884765625	330.9828491210938	-493.1836547851562	-1161.253173828125	39.6909294128418	-403.5699157714844	-1240.163940429688	45.07015991210938	-377.2543334960938	-1243.327026367188	44.36809158325195	-479.2470092773438	-1405.987670898438	49.11262893676758	-422.0592346191406	-1321.950439453125	481.2401123046875	-174.5670013427734	-1289.072631835938	739.7315063476562	-140.7376861572266	-1368.870971679688	49.74361801147461	-219.0806427001953	-1321.389526367188	340.2562255859375	-190.8624877929688	-1163.379028320312	44.91596221923828	-229.138916015625	-1223.423217773438	50.79473495483398	-276.4196166992188	-1259.34326171875	45.46538925170898	-186.1260833740234	-1412.515258789062	40.84832763671875	-274.3777160644531	-1204.324829101562	738.8544311523438	-89.38150787353516	-1142.9521484375	680.7264404296875	-532.7847290039062	nan	nan	nan	nan	nan	nan	nan	nan	nan	
68	0.67	-1372.079833984375	971.0879516601562	-297.9233703613281	-1339.609741210938	971.6648559570312	-417.6297912597656	-1371.523681640625	1029.195434570312	-363.9320983886719	-1151.968383789062	1199.8544921875	-325.0529479980469	-1386.316650390625	1136.396606445312	-364.1198120117188	-1339.154418945312	1365.930419921875	-354.3120422363281	-1187.08544921875	1294.453735351562	-331.6243896484375	-1400.069213867188	1244.526489257812	-276.6966247558594	-1350.367797851562	1310.467041015625	-442.6226196289062	-1249.519409179688	1361.858154296875	-502.5989379882812	-1254.633422851562	1234.734741210938	-562.48583984375	-1242.05810546875	1025.065551757812	-587.033935546875	-1316.24462890625	1016.077819824219	-520.2449951171875	-1150.470947265625	839.2933349609375	-544.3896484375	-1229.9052734375	800.4346923828125	-579.58056640625	-1222.552368164062	939.13037109375	-587.3543701171875	-1203.63818359375	748.1344604492188	-575.19189453125	-1140.996948242188	760.9444580078125	-561.4578857421875	-1310.929931640625	1363.659545898438	-200.1876373291016	-1336.19091796875	1296.180053710938	-146.1969604492188	-1330.755737304688	1028.0986328125	-102.2246322631836	-1373.909057617188	1008.910461425781	-149.3449401855469	-1217.599609375	830.3093872070312	-117.2329788208008	-1297.61865234375	802.5722045898438	-81.96884155273438	-1326.859497070312	973.90087890625	-95.19948577880859	-1210.890625	670.8843383789062	-107.964225769043	-1273.54638671875	734.0187377929688	-77.33039855957031	-1330.06982421875	1520.841186523438	-279.9440612792969	-1164.427734375	1592.44287109375	-367.8505859375	-1214.220581054688	1588.3056640625	-250.0601806640625	-1282.130737304688	1520.474487304688	-432.6055603027344	-1205.894287109375	892.5555419921875	-519.5348510742188	-1307.135986328125	870.4315795898438	-153.7252960205078	-1190.268920898438	908.8323364257812	-192.3160400390625	-1132.023315429688	922.5775146484375	-428.4970703125	-1242.568603515625	473.2864074707031	-484.3067932128906	-1209.7197265625	628.6951904296875	-501.0314636230469	-1353.639038085938	51.80022048950195	-480.4738464355469	-1284.743408203125	330.8973693847656	-493.2958984375	-1161.257690429688	39.69057846069336	-403.5716247558594	-1240.213256835938	45.06782150268555	-377.2093505859375	-1243.313232421875	44.36782073974609	-479.2500305175781	-1406.008666992188	49.14563369750977	-422.00146484375	-1321.805786132812	481.3005981445312	-174.6988525390625	-1288.944213867188	739.802490234375	-140.69970703125	-1368.890502929688	49.73930740356445	-219.0567779541016	-1321.37744140625	340.29541015625	-190.8719024658203	-1163.421875	44.94704055786133	-229.0292510986328	-1223.410766601562	50.87787246704102	-276.3378295898438	-1259.464233398438	45.42356491088867	-186.0350494384766	-1412.655151367188	40.88857650756836	-274.2095336914062	-1203.858154296875	738.9305419921875	-89.81925964355469	-1142.40869140625	680.6302490234375	-533.3834838867188	nan	nan	nan	nan	nan	nan	nan	nan	nan	
